<svg version="1.2" xmlns="http://www.w3.org/2000/svg" viewBox="0 0 500 500" width="500" height="500">
	<title>Pink And Blue Retro Modern Y2K Streetwear Logo (1)</title>
	<style>
		.s0 { fill: #2b2b2b } 
	</style>
	<path id="Path 0" fill-rule="evenodd" class="s0" d="m236.5 160.3c17.4 0.2 19.4 0.4 24 2.5 2.8 1.3 5.8 3.1 6.9 4 1 0.9 2.7 3.4 3.7 5.4 1.2 2.3 1.9 5.9 1.9 9 0 3.6-0.9 7.1-2.6 10.8-1.4 3-4.1 7.4-9.4 14l2.2 3.2c1.2 1.8 2.8 5.3 3.5 7.8 0.7 2.5 1.3 6.5 1.3 9 0 2.5-0.6 6.7-1.4 9.5-0.8 2.7-2.9 6.9-4.5 9.2-1.7 2.4-5.2 5.7-7.9 7.3-2.6 1.7-7.6 4-11.2 5.1-3.6 1.1-9.7 2.2-13.5 2.6-4.2 0.3-8.8 0.1-11.5-0.7-2.9-0.8-5.8-2.6-8.3-5.1-2.1-2.2-4-5.3-4.3-7.2-0.3-1.7-0.8-4.1-1.1-5.2-0.4-1.6-0.8-1.3-2.2 2-1 2.2-3.3 5.8-5.2 7.9-1.9 2.2-5.6 5-8.4 6.3-2.7 1.2-6.3 2.3-8 2.3-1.7 0-4.7-0.5-6.7-1-2.1-0.6-5.6-2.7-7.9-4.8-2.2-2-4.9-5.5-6-7.7-1-2.2-2.3-6-2.7-8.5-0.5-2.5-1.1-3.8-1.4-3-0.3 0.8-1.1 4.2-1.7 7.5-0.6 3.3-2 7.6-3 9.5-1.3 2.5-2.5 3.6-4.4 3.7-1.9 0.2-3.6-0.6-5.7-3-1.9-2-3.4-5-4-8-0.6-2.7-0.7-8.6 0.5-23l-8 0.8c-4.4 0.4-8.8 1.1-9.7 1.6-1 0.5-2.2 1.9-2.7 3.1-0.4 1.3-0.9 6.7-1 12 0 5.9-0.7 11.3-1.6 13.5-0.8 2.1-2.6 4.6-4 5.5-1.4 1-3.2 1.8-4 1.8-0.8 0-2.8-0.7-4.5-1.5-1.8-0.9-3.7-3.1-4.9-5.8-1.7-3.8-2-7.8-2.5-39.7-0.5-27.2-0.3-36.3 0.6-39 0.8-2 2.8-4.4 4.8-5.7 2.4-1.6 5-2.4 8-2.4 3.4 0 5 0.6 6.6 2.3 1.2 1.3 2.7 4.1 3.4 6.3 0.9 2.7 1.2 8.1 0.5 28.3l8.5 0.4c4.7 0.2 8.6 0.4 8.8 0.4 0.1-0.1-0.2-3-0.8-6.6-0.5-3.6-1-10.1-1-14.5 0-6.4 0.4-8.9 2.3-12.5 1.6-3.2 3.5-5.1 6.7-6.8 2.9-1.5 5.4-2.1 7-1.7 1.4 0.4 3.5 1.6 4.8 2.8 1.3 1.3 2.7 4.4 3.3 7.7 0.8 3.6 1 11.8 0 41.5l3.3-6c1.8-3.3 5-7.4 7.2-9.1 2.2-1.7 6.3-3.6 9.4-4.4 3.1-0.7 7.5-1 10-0.6 2.5 0.3 6.1 1.6 8 2.9 2.5 1.6 4 3.7 7 12.2l-0.3-18c-0.2-16.3 0-18.4 1.8-21.9 1.1-2.1 3.3-4.6 4.8-5.4 1.5-0.8 4-1.9 5.5-2.3 1.5-0.5 11.3-0.7 21.7-0.6zm-12.2 30.9l0.2 4.3c10.5-0.4 14.8-1.2 16.5-2 1.7-0.8 3.3-2.2 3.6-3.1 0.4-0.9-0.2-2.4-1.5-3.7-1.7-1.7-3.6-2.3-8.9-2.6-5.3-0.2-7.2 0.1-8.5 1.3-1.2 1.1-1.6 2.9-1.4 5.8zm-37.3 33.8c-0.7 1.4-1.7 3.7-2.2 5.2-0.4 1.6-0.6 3.5-0.3 4.3 0.3 0.8 1.4 1.5 2.5 1.5 1.1 0 2.4-0.9 3-2 0.6-1.1 1.3-4.9 1.6-8.5 0.3-3.6 0.4-6.5 0.1-6.5-0.2 0-1.1 0.8-1.9 1.7-0.9 1-2.1 2.9-2.8 4.3zm35.9 3.5c0 2.2 0.3 5.5 0.6 7.2 0.5 3.1 0.7 3.3 3.8 2.7 1.7-0.3 5-1.2 7.2-1.9 2.2-0.7 5.2-2.7 6.8-4.4 1.5-1.7 2.7-4.2 2.7-5.6 0-1.6-1-3.3-2.7-4.5-2.1-1.6-4.3-2.1-9-2-5.2 0-6.5 0.3-7.8 2.2-1 1.3-1.7 4-1.6 6.3zm155.1-68.5c0.8-0.1 2.7 0.8 4.3 2 1.7 1.3 2.9 3.3 3.3 5.7 0.4 2.1 0.1 11.9-0.6 21.8-0.7 9.9-1.5 21.7-1.9 26.2-0.3 4.6-0.5 8.3-0.3 8.3 0.1 0 2.2-1.6 4.7-3.5 2.5-1.9 6.4-4 8.8-4.5 3.4-0.9 4.6-0.8 6.5 0.5 1.2 0.8 2.5 2.5 2.8 3.7 0.4 1.5-0.1 3.6-1.4 5.8-1.1 1.9-4.1 5-11.2 10l4.6 5.2c2.6 2.9 5.5 7.1 6.6 9.3 1.2 2.3 1.7 4.9 1.4 6.2-0.4 1.4-1.6 2.5-3.3 2.9q-2.8 0.7-6.1-1.2c-1.8-1.1-4.8-3.7-6.5-5.9-1.7-2.2-4.1-5.8-7.5-12l-0.6 3c-0.3 1.6-0.8 4.8-1.2 7-0.4 2.2-1.5 5.7-2.5 7.7-1.1 2.1-2.8 4.2-3.9 4.8-1.1 0.6-3.4 1-5 1q-3 0-4.5-2.3c-0.8-1.2-1.8-4.9-2.1-8.2-0.3-3.3-0.8-6.7-1-7.5-0.3-1.1-0.9-0.9-2.1 1-0.9 1.4-2.8 3.8-4.2 5.4-1.4 1.6-4.8 3.9-7.6 5.2-2.7 1.3-6.4 2.4-8 2.4-1.6 0-4.7-0.5-6.7-1-2.1-0.6-5.6-2.7-7.9-4.8-2.2-2-5-5.8-8.4-13.2l-1.7 3.7c-0.9 2.1-3.8 5.8-6.5 8.3-2.7 2.5-6.7 5.1-8.9 5.7-2.1 0.7-5 1.3-6.4 1.3-1.4 0-4.2-0.6-6.4-1.3-2.1-0.6-5.2-2.4-7-3.8-1.7-1.4-4.3-4.8-5.8-7.5-1.6-2.9-3.2-8-3.8-12.4-0.9-5.6-0.9-9.1 0-14 0.6-3.6 2.1-8.8 3.4-11.5 1.3-2.8 4.6-7 7.3-9.5 3.2-3 6.5-4.9 9.6-5.8 2.6-0.6 6.4-1.2 8.5-1.2 2 0 5.7 1 8.2 2.2 2.9 1.5 5.1 3.5 6.2 5.8 1 1.9 2.3 5.5 3.9 12.5l3.3-6c1.8-3.3 5-7.4 7.2-9.1 2.2-1.7 6.3-3.6 9.4-4.4 3.1-0.7 7.5-1 10-0.6 2.5 0.3 6.1 1.6 8 2.9 2.5 1.6 3.9 3.5 5 7 0.8 2.6 1.7 4.7 2 4.7 0.3 0 1.5-8 2.7-17.7 1.2-10.2 2.9-19.7 4-22.2 1.1-2.7 3-5.2 4.8-6.3 1.6-1 3.7-1.8 4.5-1.8zm-78.4 66.2c-0.9 2.1-1.6 5.1-1.6 6.8 0 2.2 0.5 3 1.8 3 0.9 0.1 2.4-0.7 3.2-1.6 0.9-1.1 1.6-4.4 1.8-8.6 0.2-3.7 0.2-6.8-0.1-6.8-0.2 0-1.1 0.8-2 1.7-0.9 1-2.3 3.5-3.1 5.5zm46.4-1.2c-0.7 1.4-1.7 3.7-2.2 5.2-0.4 1.6-0.6 3.5-0.3 4.3 0.3 0.8 1.4 1.5 2.5 1.5 1.1 0 2.5-0.9 3-2 0.6-1.1 1.3-4.9 1.6-8.5 0.3-3.6 0.4-6.5 0.1-6.5-0.2 0-1.1 0.8-1.9 1.7-0.9 1-2.1 2.9-2.8 4.3zm-132.8 56c0.4 0 11.9 4.3 50.3 19.2l8.5-1.7c4.7-0.9 9.9-1.9 11.5-2.2 1.7-0.3 5 0.2 7.8 1.3 2.6 1.1 4.7 2.3 4.7 2.9 0 0.5-0.4 1.5-0.8 2.2-0.4 0.6-2.7 2.1-5.2 3.2-2.5 1.1-8.4 2.8-21.9 5.6l-5.1 10.7c-3.9 8.5-5.4 10.8-7 10.8-1.8 0-2-0.7-2-7 0-6.6-0.2-7.1-3-9.3-2.7-2-3.8-2.2-15-2-11.2 0.3-12 0.4-12 2.3 0 1.1-0.4 2.2-1 2.5-0.5 0.3-2.8-1.4-5-3.8-2.2-2.3-4-4.5-4-5 0-0.4-2-2.4-4.5-4.5-2.5-2-4.6-4-4.5-4.5 0-0.4 0.7-0.7 1.5-0.7 0.8 0 3.3 0.9 5.5 2 2.2 1.1 4.5 2 5 2 0.6 0 0.7-1.3 0.3-3.5-0.7-3.1-0.6-3.5 1.2-3.5 1.1 0 3.8 1.8 6 4 4 4 4.1 4.1 9.3 3.3 2.9-0.4 5.2-1 5.2-1.3 0-0.3-1.2-1.7-2.7-3.2-1.6-1.5-8.1-6-14.5-10-9.2-5.7-11.5-7.6-10.6-8.6 0.7-0.6 1.6-1.2 2-1.2z"/>
</svg>