<svg version="1.2" xmlns="http://www.w3.org/2000/svg" viewBox="0 0 2048 1626" width="1000" height="794">
	<title>material-ui</title>
	<style>
		.s0 { fill: #0081cb } 
		.s1 { fill: #00b0ff } 
	</style>
	<g id="Background">
		<path id="Path 0" class="s0" d="m1523.5 6.4c-6 3.5-15 8.7-20 11.6-5 2.9-10.8 6.3-13 7.5-2.2 1.2-8 4.6-13 7.4-5 2.9-9.7 5.6-10.5 6.2-0.8 0.5-6.7 3.9-13 7.5-6.3 3.7-13.3 7.7-15.5 8.9-2.2 1.3-9.6 5.6-16.5 9.5-6.9 4-18.3 10.6-25.5 14.8-7.2 4.1-17.3 9.9-22.5 12.9-5.2 3.1-11.3 6.6-13.5 7.8-2.2 1.3-8 4.6-13 7.5-5 2.9-10.8 6.3-13 7.5-2.2 1.3-8 4.6-13 7.5-5 2.9-10.8 6.3-13 7.5-2.2 1.3-8 4.7-13 7.6-5 2.8-14.7 8.5-21.8 12.6-7 4-18.5 10.7-25.7 14.8-7.2 4.1-18.8 10.9-26 15-7.2 4.1-18.7 10.8-25.8 14.8-7 4.1-18.8 10.9-26.2 15.2-7.4 4.3-19.3 11.2-26.5 15.3-7.2 4.1-18.8 10.9-26 15-7.2 4.1-17 9.8-21.8 12.6-4.9 2.8-10.5 6-12.5 7.2-2 1.1-8.2 4.7-13.7 7.9-5.5 3.2-17.4 10.1-26.5 15.3-9.1 5.3-22.1 12.8-29 16.7-6.9 4-16.5 9.6-21.5 12.5-5 2.9-10.8 6.3-13 7.5-2.2 1.2-8 4.6-13 7.5-5 2.9-10.8 6.3-13 7.5-2.2 1.2-14.1 8.1-26.5 15.2-12.4 7.2-34 19.7-48 27.8-14 8.2-27.3 15.8-29.5 17-2.2 1.2-8 4.6-13 7.5-5 2.9-14.9 8.6-22 12.8-7.1 4.1-20.5 11.8-29.8 17.1l-16.7 9.6c0 278.4 0.2 295.5 1.5 295.5 0.8 0 5.9-2.5 11.3-5.6 5.3-3.1 11.1-6.5 12.7-7.4 1.6-0.9 9.1-5.2 16.5-9.5 7.4-4.3 19.1-11 26-15 6.9-3.9 18.6-10.7 26-15 7.4-4.2 17.8-10.2 23-13.2 5.2-3.1 10.9-6.3 12.5-7.3 1.6-1 7.5-4.4 13-7.5 5.5-3.2 11.4-6.5 13-7.5 1.6-1 7.5-4.4 13-7.5 5.5-3.2 11.4-6.5 13-7.5 1.6-1 9-5.2 16.3-9.4 7.2-4.2 18.9-10.9 25.9-14.9 7.1-4.1 17.3-10 22.8-13.2 5.5-3.2 11.3-6.6 13-7.5 1.7-1 7-4.1 12-7 5-2.9 10.8-6.2 13-7.5 2.2-1.2 8.5-4.9 14-8 5.5-3.2 11.3-6.5 13-7.5 1.7-1 7.2-4.2 12.3-7.1 5.1-3 19-11 30.8-17.9 11.9-6.9 23.5-13.6 25.8-14.9 2.2-1.3 15.8-9.1 30.1-17.4 14.3-8.2 31.6-18.2 38.5-22.2 6.9-3.9 21.7-12.4 33-18.9 11.3-6.5 22.2-12.9 24.2-14.2 2.1-1.3 4-2.4 4.3-2.4 0.3 0 0.5 66.1 0.5 147v147c-12 6.7-25.8 14.6-38.5 21.9-12.7 7.3-24.3 14.1-26 15.1-1.7 0.9-9.1 5.2-16.5 9.5-7.4 4.3-19.3 11.1-26.5 15.3-7.2 4.1-18.8 10.8-26 14.9-7.2 4.2-18.8 10.9-26 15.1-7.2 4.1-17.3 9.9-22.5 12.9-5.2 3.1-10.8 6.3-12.5 7.3-1.7 1-7.5 4.3-13 7.5-5.5 3.1-11.3 6.5-13 7.5-1.7 1-9 5.2-16.3 9.4-7.2 4.2-18.9 10.9-26 14.9-7 4.1-17.2 10-22.7 13.2-5.5 3.1-11.4 6.5-13 7.5-1.6 0.9-7.5 4.3-13 7.5-5.5 3.2-11.4 6.6-13 7.5-1.6 1-7.5 4.4-13 7.5-5.5 3.2-11.4 6.5-13 7.5-1.6 1-7.3 4.2-12.5 7.2-5.2 3-19.4 11.2-31.5 18.3-12.1 7-24 13.9-26.5 15.3-2.5 1.4-5.9 3.3-7.5 4.2-1.6 1-12.9 7.5-25 14.5-12.1 7-27.9 16.2-35 20.3-7.1 4.1-14.9 8.5-17.3 9.8-2.3 1.3-4 3-3.9 3.6 0.2 0.7 2.8 2.7 5.8 4.4 3 1.7 14.4 8.3 25.4 14.6 11 6.4 40.5 23.4 65.5 37.8 25 14.4 53.8 31.1 64 37 10.2 5.9 35.1 20.3 55.5 32.1 23.6 13.7 37.9 21.4 39.5 21.3 1.4-0.1 7.7-3.2 14-6.9 6.3-3.7 13.3-7.8 15.5-9 2.2-1.3 19.8-11.4 39-22.5 19.3-11.2 40.7-23.6 47.8-27.6 7-4.1 18.4-10.7 25.5-14.7 7-4.1 18.5-10.7 25.7-14.9 7.2-4.1 25.4-14.6 40.5-23.3 15.1-8.8 32.7-18.9 39-22.5 6.3-3.7 17.6-10.2 25-14.5 7.4-4.3 19.3-11.2 26.5-15.3 7.2-4.1 18.8-10.8 26-15 7.2-4.1 17.3-9.9 22.5-13 5.2-3 11.3-6.5 13.5-7.8 2.2-1.3 7.7-4.5 12.3-7.1 4.6-2.7 10-5.8 12-6.9 2-1.2 9.7-5.6 17-9.8 7.2-4.2 19-11 26.2-15.1 7.2-4.1 18.7-10.8 25.8-14.8 7-4.1 16.7-9.8 21.7-12.6 5-2.9 10.8-6.3 13-7.6 2.2-1.3 8-4.6 13-7.4 5-2.8 9.3-5.7 9.7-6.4 0.4-0.6 0.8-199.4 0.8-441.7 0-242.3-0.2-441.5-0.4-442.8-0.1-1.2-0.7-2.2-1.2-2.2-0.5 0.1-5.9 2.9-11.9 6.4zm499 7.6c-13.2 7.6-27.6 16-32 18.5-4.4 2.5-10 5.7-12.5 7.1-2.5 1.5-8.8 5.1-14 8.1-5.2 3.1-11.3 6.6-13.5 7.8-2.2 1.3-8 4.6-13 7.5-5 2.9-10.8 6.3-13 7.5-2.2 1.3-13.9 8-26 15-12.1 7-23.3 13.5-25 14.5-1.7 1-7.5 4.3-13 7.5-5.5 3.1-11.8 6.8-14 8-2.2 1.3-8 4.6-13 7.5-5 2.9-10.8 6.3-13 7.5-2.2 1.3-8 4.6-13 7.5-5 2.9-10.3 6-12 7l-3 1.7c-0.4 228.5-0.1 295.2 0.3 295.6 0.4 0.5 6.8-2.6 14.2-6.9 7.4-4.2 19.3-11 26.5-15.2 7.2-4.1 17.3-9.9 22.5-12.9 5.2-3.1 11.3-6.6 13.5-7.8 2.2-1.3 8-4.6 13-7.5 5-2.9 10.8-6.3 13-7.5 2.2-1.3 8-4.6 13-7.5 5-2.9 10.3-6 12-7 1.7-1 7.5-4.3 13-7.5 5.5-3.1 11.3-6.5 13-7.5 1.7-0.9 9.1-5.2 16.5-9.5 7.4-4.3 17.8-10.2 23-13.2 5.2-3.1 10.8-6.3 12.5-7.3 1.7-0.9 7.5-4.3 13-7.5 5.5-3.2 11.6-6.7 13.5-7.8 1.9-1.1 7.1-4.1 11.6-6.6 4.4-2.5 8.8-5.4 9.7-6.4 1.6-1.6 1.7-12.4 1.7-149.2 0-81.1-0.3-147.5-0.7-147.5-0.5 0-11.6 6.3-24.8 14zm16.5 581.6c-3 1.8-7.1 4.2-9 5.2-1.9 1.1-9.5 5.4-16.7 9.6-7.3 4.2-19 10.9-26 14.9-7.1 4.1-16.8 9.8-21.8 12.6-5 2.9-10.8 6.3-13 7.6-2.2 1.2-8 4.6-13 7.5-5 2.9-10.8 6.2-13 7.5-2.2 1.2-8.3 4.7-13.5 7.8-5.2 3-15.2 8.8-22.3 12.8-7 4.1-24 13.9-37.9 21.9-13.8 8-27.2 15.7-29.7 17.1-2.5 1.4-10.6 6.1-17.8 10.3l-13.3 7.8v295.8c-14.3 8-19.8 11.1-21.5 12-1.7 1-7 4.1-12 7-5 2.9-14.6 8.5-21.5 12.5-6.9 3.9-22.8 13.1-35.5 20.4-12.7 7.4-24.8 14.4-27 15.6-2.2 1.3-15.5 8.9-29.5 17-14 8.1-31.3 18.1-38.5 22.3-7.2 4.1-17.3 9.9-22.5 12.9-5.2 3.1-10.8 6.3-12.5 7.3-1.7 1-7.5 4.3-13 7.5-5.5 3.1-11.3 6.5-13 7.5-1.7 1-7.5 4.3-13 7.5-5.5 3.1-11.3 6.5-13 7.5-1.7 1-8.8 5.1-16 9.2-7.2 4.1-19.1 11-26.5 15.3-7.4 4.3-17.8 10.3-23 13.3-5.2 3-10.8 6.2-12.5 7.2-1.7 1-5.7 3.3-9 5.2-3.3 1.9-13.7 7.9-23 13.3-9.3 5.4-18.3 10.6-20 11.5-1.7 1-7.3 4.3-12.5 7.3-5.2 3-15.3 8.9-22.5 13-7.2 4-17 9.8-22 12.7-5 2.9-10.8 6.3-13 7.5-2.2 1.2-12 6.8-21.7 12.3l-17.8 10.2c0 230.2 0.3 297 0.8 297 0.4 0 1.6-0.6 2.7-1.4 1.1-0.7 3.6-2.3 5.5-3.4 1.9-1.1 7.8-4.4 13-7.5 5.2-3 15.6-9 23-13.2 7.4-4.3 17.5-10.1 22.3-12.9 4.9-2.8 10.8-6.2 13.1-7.6 2.4-1.4 8.1-4.7 12.7-7.3 4.6-2.7 10.5-6 13-7.5 2.5-1.5 15.9-9.2 29.7-17.2 13.9-8 29.3-16.9 34.4-19.9 5.1-2.9 11.1-6.3 13.3-7.6 2.2-1.2 8-4.6 13-7.5 5-2.9 10.8-6.3 13-7.5 2.2-1.3 8-4.6 13-7.5 5-2.9 10.8-6.3 13-7.5 2.2-1.3 13.9-8 26-15 12.1-7 23.8-13.8 26-15 2.2-1.3 8-4.7 13-7.5 5-2.9 14.8-8.6 22-12.8 7.2-4.1 14.8-8.5 17-9.7 2.2-1.3 8-4.6 13-7.5 5-2.9 10.8-6.3 13-7.5 2.2-1.3 8-4.6 13-7.5 5-2.9 10.3-6 12-7 1.7-1 7.5-4.3 13-7.5 5.5-3.1 11.8-6.8 14-8 2.2-1.3 8-4.7 13-7.6 5-2.8 14.6-8.4 21.5-12.4 6.9-4 18.3-10.6 25.5-14.7 7.2-4.1 18.8-10.9 26-15 7.2-4.1 19.1-11 26.5-15.3 7.4-4.3 19.3-11.2 26.5-15.3 7.2-4.1 17-9.8 21.8-12.6 4.9-2.8 10.5-6 12.5-7.2 2-1.2 9.7-5.6 17-9.8 7.2-4.2 19-11 26.2-15.1 7.2-4.1 18.7-10.8 25.8-14.8 7-4.1 16.7-9.8 21.7-12.7 5-2.9 10.8-6.3 13-7.5 2.2-1.2 8-4.6 13-7.5 5-2.9 10.6-6.1 12.5-7.2 1.9-1 13.4-7.6 25.5-14.6l22-12.8c0.4-571.9 0.3-591-1.3-591-0.9-0.1-4.2 1.4-7.2 3.2z"/>
		<path id="Path 1" class="s1" d="m0 444v444c13.6 7.5 23.5 13.1 30.8 17.3 7.2 4.3 18.9 11 25.9 15.1 7.1 4 18.6 10.7 25.8 14.8 7.2 4.1 17 9.9 22 12.8 5 2.8 10.8 6.2 13 7.5 2.2 1.2 8 4.6 13 7.5 4.9 2.9 10.8 6.2 13 7.5 2.2 1.2 8.3 4.7 13.5 7.8 5.2 3 15.3 8.8 22.5 13 7.2 4.1 19.5 11.3 27.5 15.8 8 4.6 15.4 8.9 16.5 9.5 1.1 0.6 6.1 3.5 11 6.4 4.9 2.8 11.4 6.5 14.3 8.1 4.3 2.4 5.5 2.7 6.7 1.6 1.4-1.1 1.6-31.5 1.8-294.4l0.2-293.2c10.9 6.3 15.6 9.1 17.5 10.2 1.9 1.1 5.3 3 7.5 4.2 2.2 1.2 8.5 4.9 14 8.2 5.5 3.3 15.4 9 22 12.7 6.6 3.7 16.3 9.3 21.5 12.3 5.2 3 10.9 6.3 12.5 7.3 1.6 1 7.5 4.3 13 7.5 5.5 3.1 11.4 6.5 13 7.5 1.6 0.9 7.5 4.3 13 7.5 5.5 3.2 11.4 6.5 13 7.5 1.6 0.9 7.5 4.3 13 7.5 5.5 3.2 15.6 9.1 22.5 13 6.9 4 18.6 10.7 26 15 7.4 4.3 14.9 8.6 16.5 9.5 1.6 1 7.5 4.4 13 7.5 5.5 3.2 11.4 6.5 13 7.5 1.6 1 7.3 4.2 12.5 7.3 5.2 3 15.4 8.8 22.5 12.9 7.1 4.2 19 11 26.3 15.2 7.2 4.2 18.9 10.9 25.9 15 7.1 4 18.2 10.5 24.8 14.3 6.6 3.8 24.4 14.1 39.5 22.8 15.1 8.7 33.1 19.1 40 23.1 6.9 4 16.1 9.3 20.5 11.8 4.4 2.6 10 5.8 12.5 7.2 2.5 1.5 8.8 5.1 14 8.1 5.2 3.1 11.4 6.6 13.7 7.9 2.4 1.3 5 2.4 5.8 2.4 1.3 0 1.5-17.1 1.5-147.8l0.1-147.7c-5.4-3.1-10.9-6.3-15.7-9-4.8-2.8-10.6-6.1-12.9-7.5-2.4-1.4-8-4.7-12.6-7.3-4.6-2.6-14.8-8.5-22.6-13-7.8-4.5-19.8-11.4-26.5-15.3-6.8-3.9-18.6-10.7-26.3-15.1-7.7-4.4-15.6-9-17.5-10.1-1.9-1.1-7.3-4.3-12-7-4.7-2.7-14.4-8.3-21.5-12.4-7.1-4.1-17.5-10.1-23-13.3-5.5-3.2-11.4-6.5-13-7.5-1.6-0.9-7.5-4.3-13-7.5-5.5-3.2-11.4-6.6-13-7.5-1.6-1-7.5-4.4-13-7.5-5.5-3.2-11.4-6.5-13-7.5-1.6-1-7.5-4.4-13-7.5-5.5-3.2-11.4-6.5-13-7.5-1.6-1-7.5-4.4-13-7.5-5.5-3.2-11.4-6.5-13-7.5-1.6-1-7.5-4.4-13-7.5-5.5-3.2-11.4-6.5-13-7.5-1.6-1-7.1-4.1-12-7-4.9-2.9-10.8-6.2-13-7.5-2.2-1.2-8.1-4.6-13-7.5-4.9-2.9-10.8-6.2-13-7.5-2.2-1.2-8.1-4.6-13-7.5-4.9-2.9-10.8-6.2-13-7.5-2.2-1.2-8.3-4.8-13.5-7.8-5.2-3.1-15.1-8.8-22-12.7-6.9-3.9-18.4-10.5-25.5-14.7-7.1-4.1-14.8-8.5-17-9.8-2.2-1.2-8.1-4.6-13-7.5-4.9-2.9-10.8-6.2-13-7.5-2.2-1.2-8.1-4.6-13-7.5-4.9-2.9-10.8-6.2-13-7.5-2.2-1.2-8.1-4.6-13-7.5-4.9-2.9-14.8-8.6-22-12.8-7.2-4.1-17.3-9.9-22.5-12.9-5.2-3.1-10.8-6.3-12.5-7.3-1.7-1-7.5-4.3-13-7.5-5.5-3.1-11.6-6.7-13.5-7.8-1.9-1.1-5.1-3-7.1-4.1-2-1.2-6.1-3.5-9-5.2-3-1.7-7.2-4.1-9.4-5.4-2.2-1.3-5.7-3.3-7.7-4.4-2-1.2-7.6-4.4-12.5-7.2-4.8-2.8-13.3-7.7-18.8-10.9-5.5-3.2-11.3-6.5-13-7.5-1.6-1-7.5-4.3-13-7.5-5.5-3.1-11.3-6.5-13-7.5-1.6-0.9-7.5-4.3-13-7.5-5.5-3.1-10.4-6.1-11-6.6-0.5-0.5-1.6-0.9-2.2-0.9-1 0-1.3 89.5-1.3 444zm767.8 592.3c-0.9 0.8-1.2 36.6-1 146.4 0.1 79.9 0.5 146 1 146.9 0.4 0.9 3.6 3.4 7.2 5.4 3.6 2.1 8.1 4.7 10 5.8 1.9 1.1 7.8 4.4 13 7.4 5.2 3.1 21 12.1 35 20.3 14 8.1 27.3 15.7 29.5 17 2.2 1.2 9.2 5.2 15.5 8.9 6.3 3.6 12.2 7 13 7.6 0.8 0.5 5.3 3.1 9.9 5.7 4.6 2.6 10.7 6.1 13.6 7.8 2.8 1.7 8.9 5.2 13.6 7.8 4.6 2.7 12.7 7.3 17.9 10.4 5.2 3 10.9 6.3 12.5 7.3 1.7 1 7.5 4.3 13 7.5 5.5 3.1 12 6.9 14.5 8.3 2.5 1.4 5.9 3.3 7.5 4.3 1.7 1 5.3 3.1 8 4.7 2.8 1.6 6.6 3.8 8.5 4.9 1.9 1.1 9.6 5.5 17 9.8 7.4 4.3 15.3 8.8 17.5 10 2.2 1.2 6.5 3.7 9.5 5.5 3 1.8 6.8 4.1 8.5 5 1.7 0.9 7.5 4.3 13 7.5 5.5 3.2 11.3 6.6 13 7.5 1.7 1 7.5 4.4 13 7.5 5.5 3.2 11.3 6.5 13 7.5 1.7 1 7.5 4.4 13 7.5 5.5 3.2 11.3 6.5 13 7.5 1.7 1 7.5 4.4 13 7.5 5.5 3.2 11.6 6.7 13.5 7.8 1.9 1.1 5.1 3 7.1 4.1 2 1.2 6.1 3.5 9 5.2 3 1.7 7 4 8.9 5.1 1.9 1.1 7.6 4.4 12.5 7.3 5 2.9 10.8 6.2 13 7.5 2.2 1.2 8.5 4.8 14 8 5.5 3.2 11.3 6.6 13 7.5 1.7 1 8.2 4.7 14.5 8.4 6.3 3.7 11.6 6.6 11.8 6.6 0.1 0 1.9 1.1 4 2.5 2 1.4 4 2.5 4.5 2.5 0.4 0 0.6-66.9 0.5-148.6l-0.3-148.6c-6.2-3.5-12.5-7.1-18-10.3-5.5-3.1-11.3-6.5-13-7.5-1.7-0.9-7.5-4.3-13-7.5-5.5-3.2-11.3-6.6-13-7.5-1.7-1-7.3-4.2-12.5-7.3-5.2-3-15.3-8.8-22.5-12.9-7.2-4.2-19.1-11-26.5-15.3-7.4-4.3-14.8-8.6-16.5-9.5-1.7-1-7-4.1-12-7-4.9-2.9-10.8-6.2-13-7.5-2.2-1.2-8.3-4.7-13.5-7.8-5.2-3-15.3-8.8-22.5-13-7.2-4.1-17.9-10.3-24-13.8-6-3.4-14.4-8.2-18.5-10.7-4.1-2.5-10.7-6.1-14.5-8.1-3.8-1.9-29.7-16.6-57.5-32.7-27.8-16-52.1-30-54-31.2-1.9-1.1-24-13.8-49-28.2-25-14.4-52.7-30.4-61.5-35.5-8.8-5.1-20.4-11.8-25.8-14.8-7.1-4-10.1-5.2-10.9-4.4z"/>
	</g>
</svg>